<svg width="24" height="24" viewBox="0 0 24 24" fill="none" xmlns="http://www.w3.org/2000/svg">
<path d="M11.9999 1.99598C13.9465 1.99342 15.8177 2.74882 17.2169 4.10214C18.6162 5.45545 19.4335 7.30036 19.4959 9.24598L19.4999 9.49598V13.593L20.8799 16.749C20.9632 16.9391 20.9977 17.1471 20.9805 17.3539C20.9632 17.5608 20.8946 17.7601 20.781 17.9338C20.6673 18.1075 20.5121 18.2502 20.3295 18.3489C20.1469 18.4475 19.9425 18.4991 19.7349 18.499L14.9999 18.502C15.0009 19.283 14.6974 20.0336 14.1537 20.5943C13.61 21.155 12.8691 21.4815 12.0885 21.5046C11.3078 21.5276 10.5489 21.2453 9.97313 20.7177C9.39732 20.1901 9.04998 19.4587 9.00492 18.679L8.99992 18.499H4.27492C4.06773 18.4987 3.86385 18.447 3.68157 18.3485C3.4993 18.25 3.34435 18.1078 3.23064 17.9346C3.11693 17.7614 3.04801 17.5626 3.03008 17.3562C3.01215 17.1498 3.04577 16.9422 3.12792 16.752L4.49992 13.594V9.49598C4.49992 5.34098 7.85192 1.99598 11.9999 1.99598ZM13.4999 18.5L10.4999 18.502C10.4999 18.8873 10.6481 19.2578 10.9138 19.5368C11.1796 19.8158 11.5425 19.9818 11.9273 20.0005C12.3122 20.0191 12.6895 19.889 12.9809 19.637C13.2724 19.385 13.4557 19.0305 13.4929 18.647L13.4999 18.5ZM11.9999 3.49598C8.67992 3.49598 5.99992 6.16998 5.99992 9.49598V13.906L4.65592 17H19.3529L17.9999 13.907V9.50898L17.9969 9.28398C17.945 7.72922 17.29 6.25571 16.1707 5.1754C15.0513 4.09508 13.5555 3.49277 11.9999 3.49598Z" fill="#828282"/>
</svg>
