<svg width="24" height="24" viewBox="0 0 24 24" fill="none" xmlns="http://www.w3.org/2000/svg">
<path d="M10.2951 19.715C10.4849 19.8963 10.7383 19.9957 11.0008 19.9917C11.2632 19.9878 11.5136 19.8808 11.6979 19.6939C11.8821 19.507 11.9855 19.2552 11.9858 18.9927C11.986 18.7303 11.883 18.4782 11.6991 18.291L6.32908 12.999H19.9991C20.2643 12.999 20.5186 12.8936 20.7062 12.7061C20.8937 12.5186 20.9991 12.2642 20.9991 11.999C20.9991 11.7338 20.8937 11.4794 20.7062 11.2919C20.5186 11.1044 20.2643 10.999 19.9991 10.999H6.33608L11.7001 5.714C11.884 5.52678 11.987 5.27475 11.9868 5.01228C11.9865 4.74981 11.8831 4.49796 11.6989 4.31106C11.5146 4.12416 11.2642 4.0172 11.0018 4.01326C10.7393 4.00932 10.4859 4.10872 10.2961 4.29L3.37008 11.112C3.25216 11.2283 3.15853 11.3669 3.09462 11.5196C3.03071 11.6724 2.9978 11.8364 2.9978 12.002C2.9978 12.1676 3.03071 12.3316 3.09462 12.4844C3.15853 12.6371 3.25216 12.7757 3.37008 12.892L10.2951 19.715Z" fill="white"/>
</svg>
