<svg width="25" height="24" viewBox="0 0 25 24" fill="none" xmlns="http://www.w3.org/2000/svg">
<path fill-rule="evenodd" clip-rule="evenodd" d="M15.6613 7.54199H9.00534C5.63134 7.54199 3.94334 7.54199 2.99534 8.52899C2.04734 9.51599 2.27034 11.04 2.71734 14.089L3.13934 16.981C3.48934 19.372 3.66434 20.568 4.56134 21.284C5.45934 22 6.78134 22 9.42834 22H15.2383C17.8843 22 19.2083 22 20.1053 21.284C21.0023 20.568 21.1773 19.372 21.5273 16.981L21.9493 14.089C22.3963 11.04 22.6193 9.51599 21.6713 8.52899C20.7233 7.54199 19.0353 7.54199 15.6613 7.54199ZM14.9143 15.794C15.4733 15.448 15.4733 14.552 14.9143 14.206L11.5433 12.116C11.0003 11.779 10.3333 12.217 10.3333 12.91V17.09C10.3333 17.783 11.0003 18.22 11.5433 17.884L14.9143 15.794Z" fill="#828282"/>
<path opacity="0.4" d="M8.84334 2H15.8233C16.0553 2 16.2333 2 16.3893 2.015C17.4973 2.124 18.4043 2.79 18.7893 3.687H5.87634C6.26034 2.79 7.16734 2.124 8.27534 2.015C8.43234 2 8.61034 2 8.84334 2Z" fill="#828282"/>
<path opacity="0.7" d="M6.64335 4.72302C5.25335 4.72302 4.11335 5.56302 3.73235 6.67602C3.72435 6.69925 3.71668 6.72258 3.70935 6.74602C4.10735 6.62602 4.52135 6.54702 4.94135 6.49302C6.02135 6.35502 7.38735 6.35502 8.97335 6.35502H15.8654C17.4514 6.35502 18.8163 6.35502 19.8974 6.49302C20.3142 6.54358 20.7263 6.62819 21.1294 6.74602C21.122 6.72258 21.1144 6.69924 21.1064 6.67602C20.7264 5.56202 19.5854 4.72302 18.1944 4.72302H6.64335Z" fill="#828282"/>
</svg>
