<svg width="24" height="24" viewBox="0 0 24 24" fill="none" xmlns="http://www.w3.org/2000/svg">
<path d="M11.9999 19.704L3.27291 11.212C3.20258 11.1421 3.11908 11.0868 3.02725 11.0494C2.93542 11.012 2.83708 10.9931 2.73791 10.9939C2.63875 10.9947 2.54073 11.0152 2.44953 11.0542C2.35833 11.0931 2.27577 11.1498 2.20661 11.2209C2.13745 11.2919 2.08308 11.376 2.04663 11.4683C2.01018 11.5605 1.99239 11.659 1.99428 11.7582C1.99616 11.8573 2.0177 11.9551 2.05763 12.0459C2.09756 12.1367 2.1551 12.2186 2.22691 12.287L11.4769 21.287C11.6169 21.4232 11.8046 21.4995 11.9999 21.4995C12.1953 21.4995 12.3829 21.4232 12.5229 21.287L21.7729 12.287C21.8447 12.2186 21.9023 12.1367 21.9422 12.0459C21.9821 11.9551 22.0037 11.8573 22.0055 11.7582C22.0074 11.659 21.9896 11.5605 21.9532 11.4683C21.9167 11.376 21.8624 11.2919 21.7932 11.2209C21.7241 11.1498 21.6415 11.0931 21.5503 11.0542C21.4591 11.0152 21.3611 10.9947 21.2619 10.9939C21.1627 10.9931 21.0644 11.012 20.9726 11.0494C20.8807 11.0868 20.7972 11.1421 20.7269 11.212L11.9999 19.704Z" fill="#828282"/>
</svg>
