<svg width="100" height="100" viewBox="0 0 100 100" fill="none" xmlns="http://www.w3.org/2000/svg">
<rect width="100" height="100" rx="12" fill="#222728"/>
<g clip-path="url(#clip0_201_924)">
<path d="M50 82C67.6731 82 82 67.6731 82 50C82 32.3269 67.6731 18 50 18C32.3269 18 18 32.3269 18 50C18 67.6731 32.3269 82 50 82Z" fill="#FFCE00"/>
<path d="M66.9908 38.9316C66.9908 39.9224 66.7837 40.8392 66.4288 41.6081C66.1996 42.1035 65.5712 42.3179 65.1349 41.9926C64.6617 41.6451 64.122 41.4455 63.5527 41.4455C62.9834 41.4455 62.4584 41.6377 61.9852 41.9926C61.549 42.3179 60.9205 42.1035 60.6913 41.6081C60.3364 40.8392 60.1294 39.9224 60.1294 38.9316C60.1294 36.2477 61.6673 34.0665 63.5527 34.0665C65.4381 34.0665 66.9834 36.2477 66.9834 38.9316H66.9908Z" fill="#562912"/>
<path d="M39.8632 38.9316C39.8632 39.9224 39.6562 40.8392 39.3013 41.6081C39.0721 42.1035 38.4436 42.3179 38.0074 41.9926C37.5342 41.6451 36.9944 41.4455 36.4251 41.4455C35.8558 41.4455 35.3235 41.6377 34.8577 41.9926C34.4214 42.3179 33.793 42.1035 33.5638 41.6081C33.2089 40.8392 33.0018 39.9224 33.0018 38.9316C33.0018 36.2477 34.5323 34.0665 36.4251 34.0665C38.3179 34.0665 39.8558 36.2477 39.8558 38.9316H39.8632Z" fill="#562912"/>
<path d="M33.7264 51.4343C32.78 51.4343 32.122 52.3438 32.3733 53.2606C34.0443 59.3604 41.2828 63.9593 49.9852 63.9593C58.6876 63.9593 66.0074 59.3086 67.6266 53.1497C67.8558 52.2772 67.146 51.4417 66.2513 51.4417H33.7264V51.4343Z" fill="#562912"/>
<path d="M49.9852 53.8225C54.732 53.8225 59.0869 52.9279 62.5397 51.4343H37.4307C40.8835 52.9279 45.2384 53.8225 49.9852 53.8225Z" fill="white"/>
<path d="M50.2884 60.6321C47.7671 60.6321 45.4973 61.6081 43.8928 63.1608C45.8004 63.671 47.8485 63.9519 49.9926 63.9519C52.3143 63.9519 54.5176 63.6192 56.5509 63.0203C54.9538 61.5416 52.7357 60.6248 50.2884 60.6248V60.6321Z" fill="#CC342F"/>
</g>
<path d="M0 38H100V88C100 94.6274 94.6274 100 88 100H12C5.37258 100 0 94.6274 0 88V38Z" fill="#5CBEFF" fill-opacity="0.6"/>
<path fill-rule="evenodd" clip-rule="evenodd" d="M0 8L4.02685 11.3708C8.38926 15.0787 16.7785 22.1573 25.1678 22.4944C33.2215 23.1685 41.6107 17.1011 50 13.3933C58.3893 10.0225 66.7785 9.01124 75.1678 13.0562C83.2215 17.1011 91.6107 25.8652 95.9732 30.5843L100 34.9663V38H95.9732C91.6107 38 83.2215 38 75.1678 38C66.7785 38 58.3893 38 50 38C41.6107 38 33.2215 38 25.1678 38C16.7785 38 8.38926 38 4.02685 38H0V8Z" fill="#5CBEFF" fill-opacity="0.6"/>
<path fill-rule="evenodd" clip-rule="evenodd" d="M100 34.9663L100 22.4231L95.8333 23.9808C94.6235 24.4331 93.0623 25.0167 91.2518 25.6554C93.0947 27.4968 94.7043 29.2116 95.9732 30.5843L100 34.9663ZM37.3836 19.621C33.2557 16.9278 29.1278 14.6298 25 14.1154C20.352 13.5362 15.704 15.2184 11.7789 17.3601C15.7702 20.0019 20.469 22.3056 25.1678 22.4944C29.1705 22.8294 33.2562 21.4992 37.3836 19.621Z" fill="#0099FF" fill-opacity="0.6"/>
<defs>
<clipPath id="clip0_201_924">
<rect width="64" height="64" fill="white" transform="translate(18 18)"/>
</clipPath>
</defs>
</svg>
