<svg width="24" height="24" viewBox="0 0 24 24" fill="none" xmlns="http://www.w3.org/2000/svg">
    <path d="M13.106 22H10.894C7.44698 22 5.72398 22 4.54898 20.988C3.37398 19.976 3.12998 18.283 2.64298 14.895L2.36398 12.958C1.98398 10.321 1.79398 9.002 2.33498 7.875C2.87498 6.748 4.02598 6.062 6.32698 4.692L7.71198 3.867C9.79998 2.622 10.846 2 12 2C13.154 2 14.199 2.622 16.288 3.867L17.673 4.692C19.973 6.062 21.124 6.748 21.665 7.875C22.205 9.002 22.015 10.321 21.635 12.958L21.357 14.895C20.87 18.283 20.626 19.976 19.451 20.988C18.276 22 16.553 22 13.106 22Z"
          fill="#828282"/>
    <path fill-rule="evenodd" clip-rule="evenodd"
          d="M12 18.75C11.8011 18.75 11.6103 18.671 11.4697 18.5303C11.329 18.3897 11.25 18.1989 11.25 18V15C11.25 14.8011 11.329 14.6103 11.4697 14.4697C11.6103 14.329 11.8011 14.25 12 14.25C12.1989 14.25 12.3897 14.329 12.5303 14.4697C12.671 14.6103 12.75 14.8011 12.75 15V18C12.75 18.1989 12.671 18.3897 12.5303 18.5303C12.3897 18.671 12.1989 18.75 12 18.75Z"
          fill="#101617"/>
</svg>
