<svg width="25" height="24" viewBox="0 0 25 24" fill="none" xmlns="http://www.w3.org/2000/svg">
<path fill-rule="evenodd" clip-rule="evenodd" d="M12.1666 2C8.02463 2 4.66663 5.436 4.66663 9.674C4.66663 11.947 5.63263 13.989 7.16563 15.394C7.67563 15.861 8.05463 16.208 8.32263 16.46C8.45839 16.5875 8.59174 16.7175 8.72263 16.85C8.73391 16.8617 8.74492 16.8737 8.75563 16.886C8.99263 17.186 9.04363 17.262 9.07363 17.332C9.10363 17.402 9.12663 17.492 9.18563 17.872C9.20963 18.022 9.21163 18.278 9.21163 18.977V19.007C9.21163 19.416 9.21163 19.769 9.23763 20.058C9.26463 20.364 9.32463 20.668 9.48563 20.953C9.66563 21.272 9.92363 21.536 10.2356 21.72C10.5136 21.885 10.8106 21.946 11.1096 21.974C11.3926 22 11.7376 22 12.1376 22H12.1956C12.5956 22 12.9406 22 13.2236 21.974C13.5236 21.946 13.8186 21.884 14.0986 21.72C14.4113 21.5345 14.6696 21.27 14.8476 20.953C15.0076 20.668 15.0676 20.365 15.0956 20.058C15.1216 19.768 15.1216 19.416 15.1206 19.007V18.977C15.1206 18.278 15.1236 18.022 15.1466 17.872C15.2066 17.492 15.2286 17.402 15.2596 17.332C15.2896 17.262 15.3406 17.185 15.5776 16.886L15.5856 16.876L15.6106 16.85C15.7415 16.7175 15.8749 16.5875 16.0106 16.46C16.2786 16.208 16.6576 15.861 17.1676 15.393C17.9585 14.6656 18.5892 13.7814 19.0195 12.7967C19.4497 11.812 19.6701 10.7485 19.6666 9.674C19.6666 5.436 16.3086 2 12.1666 2ZM13.7516 19.674H10.5816C10.5846 19.771 10.5886 19.856 10.5956 19.932C10.6146 20.142 10.6456 20.218 10.6666 20.256C10.7261 20.3615 10.8124 20.4494 10.9166 20.511C10.9536 20.533 11.0276 20.565 11.2326 20.584C11.4466 20.604 11.7296 20.604 12.1666 20.604C12.6036 20.604 12.8866 20.604 13.1006 20.584C13.3056 20.565 13.3796 20.534 13.4166 20.511C13.5209 20.4494 13.6071 20.3615 13.6666 20.256C13.6876 20.218 13.7186 20.142 13.7366 19.932C13.7446 19.856 13.7486 19.772 13.7516 19.674ZM13.2766 8.176C13.5836 8.4 13.6546 8.836 13.4356 9.15L12.2576 10.837H13.6596C13.786 10.8375 13.9098 10.8732 14.017 10.9402C14.1242 11.0071 14.2107 11.1027 14.2666 11.216C14.3238 11.3302 14.3491 11.4577 14.34 11.5851C14.3308 11.7125 14.2875 11.8351 14.2146 11.94L12.2666 14.731C12.2157 14.8052 12.1504 14.8684 12.0746 14.9169C11.9988 14.9653 11.9141 14.9981 11.8254 15.0132C11.7367 15.0283 11.6459 15.0255 11.5583 15.0048C11.4708 14.9842 11.3882 14.9461 11.3156 14.893C11.168 14.7831 11.069 14.6201 11.0395 14.4385C11.01 14.2569 11.0524 14.0709 11.1576 13.92L12.3356 12.233H10.9326C10.8064 12.2323 10.6828 12.1965 10.5758 12.1295C10.4688 12.0626 10.3825 11.9672 10.3266 11.854C10.2691 11.7397 10.2435 11.6121 10.2525 11.4845C10.2615 11.3569 10.3047 11.2341 10.3776 11.129L12.3256 8.339C12.3765 8.26474 12.4417 8.20145 12.5174 8.15288C12.5932 8.1043 12.6779 8.07144 12.7666 8.05624C12.8553 8.04104 12.9462 8.0438 13.0338 8.06438C13.1214 8.08495 13.204 8.12291 13.2766 8.176Z" fill="#828282"/>
</svg>
