<svg width="18" height="18" viewBox="0 0 18 18" fill="none" xmlns="http://www.w3.org/2000/svg">
<path d="M9 1.5C13.1422 1.5 16.5 4.8585 16.5 9C16.5 13.1415 13.1422 16.5 9 16.5C4.85775 16.5 1.5 13.1415 1.5 9C1.5 4.8585 4.85775 1.5 9 1.5ZM9 2.75025C5.55375 2.75025 2.75025 5.55375 2.75025 9C2.75025 12.4462 5.55375 15.2498 9 15.2498C12.4462 15.2498 15.2498 12.4462 15.2498 9C15.2498 5.55375 12.4462 2.75025 9 2.75025ZM9 11.625C9.19891 11.625 9.38968 11.704 9.53033 11.8447C9.67098 11.9853 9.75 12.1761 9.75 12.375C9.75 12.5739 9.67098 12.7647 9.53033 12.9053C9.38968 13.046 9.19891 13.125 9 13.125C8.80109 13.125 8.61032 13.046 8.46967 12.9053C8.32902 12.7647 8.25 12.5739 8.25 12.375C8.25 12.1761 8.32902 11.9853 8.46967 11.8447C8.61032 11.704 8.80109 11.625 9 11.625ZM9 5.0625C9.54701 5.0625 10.0716 5.2798 10.4584 5.66659C10.8452 6.05339 11.0625 6.57799 11.0625 7.125C11.0625 7.8825 10.8398 8.3055 10.2743 8.89425L10.1475 9.0225C9.681 9.489 9.5625 9.687 9.5625 10.125C9.5625 10.2742 9.50324 10.4173 9.39775 10.5227C9.29226 10.6282 9.14918 10.6875 9 10.6875C8.85082 10.6875 8.70774 10.6282 8.60225 10.5227C8.49676 10.4173 8.4375 10.2742 8.4375 10.125C8.4375 9.3675 8.66025 8.9445 9.22575 8.35575L9.3525 8.2275C9.819 7.761 9.9375 7.563 9.9375 7.125C9.93672 6.88521 9.84409 6.65483 9.67866 6.48124C9.51322 6.30765 9.28756 6.20406 9.04808 6.19176C8.8086 6.17947 8.57351 6.25941 8.39117 6.41514C8.20882 6.57086 8.09308 6.79055 8.06775 7.029L8.0625 7.125C8.0625 7.27418 8.00324 7.41726 7.89775 7.52275C7.79226 7.62824 7.64918 7.6875 7.5 7.6875C7.35082 7.6875 7.20774 7.62824 7.10225 7.52275C6.99676 7.41726 6.9375 7.27418 6.9375 7.125C6.9375 6.57799 7.1548 6.05339 7.54159 5.66659C7.92839 5.2798 8.45299 5.0625 9 5.0625Z" fill="#828282"/>
</svg>
