<svg width="24" height="24" viewBox="0 0 24 24" fill="none" xmlns="http://www.w3.org/2000/svg">
<path d="M10 2C8.72678 1.99986 7.47191 2.30363 6.3397 2.88604C5.20749 3.46845 4.23064 4.31269 3.49036 5.34858C2.75007 6.38448 2.26772 7.5821 2.08341 8.84192C1.8991 10.1017 2.01815 11.3873 2.43065 12.5919C2.84316 13.7964 3.53722 14.8851 4.45513 15.7675C5.37304 16.6498 6.4883 17.3003 7.7082 17.665C8.9281 18.0296 10.2174 18.0977 11.469 17.8638C12.7205 17.6299 13.8982 17.1006 14.904 16.32L20.292 21.706C20.3842 21.8015 20.4946 21.8777 20.6166 21.9301C20.7386 21.9825 20.8698 22.0101 21.0026 22.0112C21.1354 22.0124 21.2671 21.9871 21.39 21.9368C21.5129 21.8865 21.6245 21.8123 21.7184 21.7184C21.8123 21.6245 21.8865 21.5128 21.9368 21.39C21.9871 21.2671 22.0124 21.1354 22.0113 21.0026C22.0101 20.8698 21.9825 20.7386 21.9301 20.6166C21.8777 20.4946 21.8015 20.3842 21.706 20.292L16.32 14.906C17.2381 13.7235 17.8059 12.307 17.959 10.8178C18.112 9.32851 17.8441 7.82619 17.1857 6.48165C16.5273 5.1371 15.5048 4.00429 14.2345 3.21202C12.9642 2.41976 11.4971 1.99983 10 2ZM4 10C4 8.4087 4.63214 6.88258 5.75736 5.75736C6.88258 4.63214 8.4087 4 10 4C11.5913 4 13.1174 4.63214 14.2426 5.75736C15.3679 6.88258 16 8.4087 16 10C16 11.5913 15.3679 13.1174 14.2426 14.2426C13.1174 15.3679 11.5913 16 10 16C8.4087 16 6.88258 15.3679 5.75736 14.2426C4.63214 13.1174 4 11.5913 4 10Z" fill="#828282"/>
</svg>
