<svg width="64" height="64" viewBox="0 0 64 64" fill="none" xmlns="http://www.w3.org/2000/svg">
<g clip-path="url(#clip0_152_496)">
<path d="M37.1936 63.5847C54.6324 60.7162 66.4442 44.2522 63.576 26.8113C60.7078 9.37052 44.2457 -2.44264 26.8068 0.425905C9.36803 3.29445 -2.44377 19.7585 0.424446 37.1993C3.29266 54.6401 19.7548 66.4533 37.1936 63.5847Z" fill="#FFCE00"/>
<path d="M32.3552 37.5348C29.9153 37.5348 27.7341 38.5775 26.2258 40.2264H38.4846C36.9763 38.5775 34.7951 37.5348 32.3552 37.5348Z" fill="white"/>
<path d="M37.3161 52.0356C39.2976 50.5566 40.5841 48.2347 40.5841 45.6097C40.5841 43.5392 39.7856 41.661 38.4843 40.2338H26.2255C24.9243 41.661 24.1257 43.5392 24.1257 45.6097C24.1257 48.2347 25.4122 50.564 27.3938 52.0356C28.8207 51.2148 30.5213 50.7415 32.3549 50.7415C34.1886 50.7415 35.8891 51.2222 37.3161 52.0356Z" fill="#562912"/>
<path d="M37.3162 52.0356C35.8892 51.2148 34.1886 50.7415 32.355 50.7415C30.5213 50.7415 28.8134 51.2222 27.3938 52.0356C28.7764 53.0634 30.4918 53.6772 32.355 53.6772C34.2182 53.6772 35.9335 53.0634 37.3162 52.0356Z" fill="#CC342F"/>
<path d="M12.6728 18.6935C12.4214 18.6935 12.1626 18.59 11.9852 18.3755C11.6599 17.9984 11.7042 17.429 12.0813 17.1036C14.1441 15.3363 16.7763 14.2272 19.4898 13.9831C19.9852 13.9462 20.4214 14.3011 20.4658 14.7965C20.5101 15.292 20.1478 15.7283 19.6451 15.7726C17.3087 15.9871 15.0314 16.941 13.2495 18.4716C13.0795 18.6121 12.8724 18.6861 12.6654 18.6861L12.6728 18.6935Z" fill="#562912"/>
<path d="M51.3272 18.6935C51.1201 18.6935 50.9131 18.6195 50.7431 18.479C48.9538 16.9484 46.6839 15.9945 44.3475 15.78C43.8521 15.7356 43.4898 15.2994 43.5342 14.8039C43.5786 14.3085 44.0222 13.9462 44.5176 13.9905C47.2237 14.2345 49.8558 15.3437 51.9261 17.111C52.3031 17.4364 52.3475 18.0058 52.0222 18.3829C51.8447 18.5899 51.5933 18.7009 51.3346 18.7009L51.3272 18.6935Z" fill="#562912"/>
<path d="M52.3919 27.0715C52.3919 30.9389 49.3679 34.0668 45.6341 34.0668C41.9002 34.0668 38.8762 30.9389 38.8762 27.0715C38.8762 23.2042 41.9002 20.0763 45.6341 20.0763C49.3679 20.0763 52.3919 23.2042 52.3919 27.0715Z" fill="white"/>
<path d="M48.5183 27.0715C48.5183 28.7205 47.2243 30.0589 45.6344 30.0589C44.0446 30.0589 42.7432 28.7205 42.7432 27.0715C42.7432 25.4225 44.0372 24.0841 45.6344 24.0841C47.2317 24.0841 48.5183 25.4225 48.5183 27.0715Z" fill="#562912"/>
<path d="M25.1239 27.0715C25.1239 30.9389 22.0998 34.0668 18.366 34.0668C14.6322 34.0668 11.6082 30.9389 11.6082 27.0715C11.6082 23.2042 14.6322 20.0763 18.366 20.0763C22.0998 20.0763 25.1239 23.2042 25.1239 27.0715Z" fill="white"/>
<path d="M21.2502 27.0715C21.2502 28.7205 19.9561 30.0589 18.3663 30.0589C16.7765 30.0589 15.4824 28.7205 15.4824 27.0715C15.4824 25.4225 16.7765 24.0841 18.3663 24.0841C19.9561 24.0841 21.2502 25.4225 21.2502 27.0715Z" fill="#562912"/>
</g>
<defs>
<clipPath id="clip0_152_496">
<rect width="64" height="64" fill="white"/>
</clipPath>
</defs>
</svg>
