<svg width="100" height="100" viewBox="0 0 100 100" fill="none" xmlns="http://www.w3.org/2000/svg">
<rect width="100" height="100" rx="12" fill="#222728"/>
<g clip-path="url(#clip0_201_1306)">
<path d="M55.1936 81.5847C72.6324 78.7162 84.4442 62.2522 81.576 44.8113C78.7078 27.3705 62.2457 15.5574 44.8068 18.4259C27.368 21.2945 15.5562 37.7585 18.4244 55.1993C21.2927 72.6401 37.7548 84.4533 55.1936 81.5847Z" fill="#FFCE00"/>
<path d="M50.3552 55.5348C47.9153 55.5348 45.7341 56.5774 44.2258 58.2264H56.4846C54.9763 56.5774 52.7951 55.5348 50.3552 55.5348Z" fill="white"/>
<path d="M55.3161 70.0355C57.2976 68.5566 58.5841 66.2347 58.5841 63.6096C58.5841 61.5391 57.7856 59.6609 56.4843 58.2338H44.2255C42.9243 59.6609 42.1257 61.5391 42.1257 63.6096C42.1257 66.2347 43.4122 68.564 45.3938 70.0355C46.8207 69.2147 48.5213 68.7414 50.3549 68.7414C52.1886 68.7414 53.8891 69.2221 55.3161 70.0355Z" fill="#562912"/>
<path d="M55.3162 70.0355C53.8892 69.2147 52.1886 68.7415 50.355 68.7415C48.5213 68.7415 46.8134 69.2221 45.3938 70.0355C46.7764 71.0633 48.4918 71.6771 50.355 71.6771C52.2182 71.6771 53.9335 71.0633 55.3162 70.0355Z" fill="#CC342F"/>
<path d="M30.6728 36.6935C30.4214 36.6935 30.1626 36.5899 29.9852 36.3755C29.6599 35.9984 29.7042 35.429 30.0813 35.1036C32.1441 33.3363 34.7763 32.2271 37.4898 31.9831C37.9852 31.9461 38.4214 32.3011 38.4658 32.7965C38.5101 33.292 38.1478 33.7282 37.6451 33.7726C35.3087 33.987 33.0314 34.9409 31.2495 36.4716C31.0795 36.6121 30.8724 36.6861 30.6654 36.6861L30.6728 36.6935Z" fill="#562912"/>
<path d="M69.3272 36.6934C69.1201 36.6934 68.9131 36.6195 68.7431 36.479C66.9538 34.9483 64.6839 33.9944 62.3475 33.78C61.8521 33.7356 61.4898 33.2993 61.5342 32.8039C61.5786 32.3085 62.0222 31.9461 62.5176 31.9905C65.2237 32.2345 67.8558 33.3437 69.9261 35.111C70.3031 35.4364 70.3475 36.0057 70.0222 36.3829C69.8447 36.5899 69.5933 36.7008 69.3346 36.7008L69.3272 36.6934Z" fill="#562912"/>
<path d="M70.3919 45.0716C70.3919 48.9389 67.3679 52.0668 63.6341 52.0668C59.9002 52.0668 56.8762 48.9389 56.8762 45.0716C56.8762 41.2042 59.9002 38.0763 63.6341 38.0763C67.3679 38.0763 70.3919 41.2042 70.3919 45.0716Z" fill="white"/>
<path d="M66.5183 45.0715C66.5183 46.7205 65.2243 48.0589 63.6344 48.0589C62.0446 48.0589 60.7432 46.7205 60.7432 45.0715C60.7432 43.4225 62.0372 42.0841 63.6344 42.0841C65.2317 42.0841 66.5183 43.4225 66.5183 45.0715Z" fill="#562912"/>
<path d="M43.1239 45.0716C43.1239 48.9389 40.0998 52.0668 36.366 52.0668C32.6322 52.0668 29.6082 48.9389 29.6082 45.0716C29.6082 41.2042 32.6322 38.0763 36.366 38.0763C40.0998 38.0763 43.1239 41.2042 43.1239 45.0716Z" fill="white"/>
<path d="M39.2502 45.0715C39.2502 46.7205 37.9561 48.0589 36.3663 48.0589C34.7765 48.0589 33.4824 46.7205 33.4824 45.0715C33.4824 43.4225 34.7765 42.0841 36.3663 42.0841C37.9561 42.0841 39.2502 43.4225 39.2502 45.0715Z" fill="#562912"/>
</g>
<path fill-rule="evenodd" clip-rule="evenodd" d="M0 74L4.02685 75.573C8.38926 77.3034 16.7785 80.6067 25.1678 80.764C33.2215 81.0787 41.6107 78.2472 50 76.5169C58.3893 74.9438 66.7785 74.4719 75.1678 76.3596C83.2215 78.2472 91.6107 82.3371 95.9732 84.5393L100 86.5843V88H95.9732C91.6107 88 83.2215 88 75.1678 88C66.7785 88 58.3893 88 50 88C41.6107 88 33.2215 88 25.1678 88C16.7785 88 8.38926 88 4.02685 88H0V74Z" fill="#5CBEFF" fill-opacity="0.6"/>
<path fill-rule="evenodd" clip-rule="evenodd" d="M100 86.5843L100 80.7308L95.8333 81.4577C94.6235 81.6688 93.0623 81.9412 91.2518 82.2392C93.0947 83.0986 94.7043 83.8988 95.9732 84.5394L100 86.5843ZM37.3836 79.4232C33.2557 78.1663 29.1278 77.0939 25 76.8539C20.352 76.5836 15.704 77.3686 11.7789 78.3681C15.7702 79.6009 20.469 80.676 25.1678 80.7641C29.1705 80.9205 33.2562 80.2997 37.3836 79.4232Z" fill="#0099FF" fill-opacity="0.6"/>
<path d="M0 88H100C100 94.6274 94.6274 100 88 100H12C5.37258 100 0 94.6274 0 88Z" fill="#5CBEFF" fill-opacity="0.6"/>
<defs>
<clipPath id="clip0_201_1306">
<rect width="64" height="64" fill="white" transform="translate(18 18)"/>
</clipPath>
</defs>
</svg>
