<svg width="64" height="64" viewBox="0 0 64 64" fill="none" xmlns="http://www.w3.org/2000/svg">
<g clip-path="url(#clip0_152_134)">
<path d="M64 32C64 49.671 49.6784 64 32 64C14.3216 64 0 49.671 0 32C0 14.329 14.3216 0 32 0C49.6784 0 64 14.329 64 32Z" fill="#D24103"/>
<path d="M23.0019 33.7819C23.0019 36.3549 21.5306 38.4473 19.7191 38.4473C17.9076 38.4473 16.4363 36.3549 16.4363 33.7819C16.4363 31.2089 17.9076 29.1165 19.7191 29.1165C21.5306 29.1165 23.0019 31.2015 23.0019 33.7819Z" fill="#562912"/>
<path d="M47.5638 33.7819C47.5638 36.3549 46.0924 38.4473 44.281 38.4473C42.4695 38.4473 40.9982 36.3549 40.9982 33.7819C40.9982 31.2089 42.4695 29.1165 44.281 29.1165C46.0924 29.1165 47.5638 31.2015 47.5638 33.7819Z" fill="#562912"/>
<path d="M24.939 30.7135C24.5471 30.7135 24.1922 30.4621 24.0739 30.0629C23.1054 26.78 19.8226 24.281 15.9039 23.8373C15.4085 23.7856 15.0536 23.3346 15.1128 22.8392C15.1719 22.3438 15.6081 21.9815 16.1109 22.0481C20.7394 22.573 24.6359 25.5897 25.8115 29.5601C25.952 30.0407 25.6784 30.5361 25.1978 30.6839C25.1091 30.7061 25.0277 30.7209 24.939 30.7209V30.7135Z" fill="#562912"/>
<path d="M39.061 30.7135C38.9797 30.7135 38.8909 30.7061 38.8022 30.6765C38.3216 30.536 38.048 30.0333 38.1959 29.5527C39.3641 25.5823 43.2606 22.5656 47.8891 22.0407C48.3919 21.9815 48.8281 22.3364 48.8872 22.8318C48.9464 23.3272 48.5915 23.7708 48.0961 23.8299C44.1774 24.2736 40.8946 26.78 39.926 30.0555C39.8077 30.4473 39.4529 30.7061 39.061 30.7061V30.7135Z" fill="#562912"/>
<path d="M38.4399 48.8725C38.085 48.8725 37.7301 48.7468 37.4492 48.4806C36.1109 47.2311 34.2772 46.4991 32.2957 46.4251C30.0998 46.329 28.0074 47.0832 26.5582 48.4658C25.9741 49.0203 25.0573 48.9982 24.5028 48.4214C23.9482 47.8373 23.9704 46.9205 24.5545 46.366C26.5656 44.4436 29.4344 43.4085 32.414 43.5194C35.0906 43.6229 37.5896 44.6285 39.4381 46.3512C40.0222 46.8983 40.0591 47.8226 39.512 48.4067C39.2236 48.7172 38.8392 48.8725 38.4473 48.8725H38.4399Z" fill="#562912"/>
</g>
<defs>
<clipPath id="clip0_152_134">
<rect width="64" height="64" fill="white"/>
</clipPath>
</defs>
</svg>
