<svg width="100" height="100" viewBox="0 0 100 100" fill="none" xmlns="http://www.w3.org/2000/svg">
<rect width="100" height="100" rx="12" fill="#222728"/>
<g clip-path="url(#clip0_201_1011)">
<path d="M82 50C82 67.671 67.6784 82 50 82C32.3216 82 18 67.671 18 50C18 32.329 32.3216 18 50 18C67.6784 18 82 32.329 82 50Z" fill="#D24103"/>
<path d="M41.0019 51.7819C41.0019 54.3549 39.5306 56.4473 37.7191 56.4473C35.9076 56.4473 34.4363 54.3549 34.4363 51.7819C34.4363 49.2089 35.9076 47.1165 37.7191 47.1165C39.5306 47.1165 41.0019 49.2015 41.0019 51.7819Z" fill="#562912"/>
<path d="M65.5638 51.7819C65.5638 54.3549 64.0924 56.4473 62.281 56.4473C60.4695 56.4473 58.9982 54.3549 58.9982 51.7819C58.9982 49.2089 60.4695 47.1165 62.281 47.1165C64.0924 47.1165 65.5638 49.2015 65.5638 51.7819Z" fill="#562912"/>
<path d="M42.939 48.7135C42.5471 48.7135 42.1922 48.4621 42.0739 48.0628C41.1054 44.78 37.8226 42.281 33.9039 41.8373C33.4085 41.7856 33.0536 41.3346 33.1128 40.8392C33.1719 40.3438 33.6081 39.9815 34.1109 40.048C38.7394 40.573 42.6359 43.5896 43.8115 47.5601C43.952 48.0407 43.6784 48.536 43.1978 48.6839C43.1091 48.7061 43.0277 48.7209 42.939 48.7209V48.7135Z" fill="#562912"/>
<path d="M57.061 48.7134C56.9797 48.7134 56.8909 48.7061 56.8022 48.6765C56.3216 48.536 56.048 48.0332 56.1959 47.5526C57.3641 43.5822 61.2606 40.5656 65.8891 40.0406C66.3919 39.9815 66.8281 40.3364 66.8872 40.8317C66.9464 41.3271 66.5915 41.7708 66.0961 41.8299C62.1774 42.2735 58.8946 44.78 57.926 48.0554C57.8077 48.4473 57.4529 48.7061 57.061 48.7061V48.7134Z" fill="#562912"/>
<path d="M56.4399 66.8725C56.085 66.8725 55.7301 66.7468 55.4492 66.4806C54.1109 65.2311 52.2772 64.4991 50.2957 64.4252C48.0998 64.329 46.0074 65.0832 44.5582 66.4658C43.9741 67.0204 43.0573 66.9982 42.5028 66.4215C41.9482 65.8374 41.9704 64.9205 42.5545 64.366C44.5656 62.4436 47.4344 61.4085 50.414 61.5194C53.0906 61.6229 55.5896 62.6285 57.4381 64.3512C58.0222 64.8984 58.0591 65.8226 57.512 66.4067C57.2236 66.7172 56.8392 66.8725 56.4473 66.8725H56.4399Z" fill="#562912"/>
</g>
<defs>
<clipPath id="clip0_201_1011">
<rect width="64" height="64" fill="white" transform="translate(18 18)"/>
</clipPath>
</defs>
</svg>
