<svg width="64" height="64" viewBox="0 0 64 64" fill="none" xmlns="http://www.w3.org/2000/svg">
<g clip-path="url(#clip0_152_309)">
<path d="M32 64C49.6731 64 64 49.6731 64 32C64 14.3269 49.6731 0 32 0C14.3269 0 0 14.3269 0 32C0 49.6731 14.3269 64 32 64Z" fill="#FFCE00"/>
<path d="M48.9908 20.9316C48.9908 21.9224 48.7837 22.8392 48.4288 23.6081C48.1996 24.1035 47.5712 24.3179 47.1349 23.9926C46.6617 23.6451 46.122 23.4455 45.5527 23.4455C44.9834 23.4455 44.4584 23.6377 43.9852 23.9926C43.549 24.3179 42.9205 24.1035 42.6913 23.6081C42.3364 22.8392 42.1294 21.9224 42.1294 20.9316C42.1294 18.2477 43.6673 16.0665 45.5527 16.0665C47.4381 16.0665 48.9834 18.2477 48.9834 20.9316H48.9908Z" fill="#562912"/>
<path d="M21.8632 20.9316C21.8632 21.9224 21.6562 22.8392 21.3013 23.6081C21.0721 24.1035 20.4436 24.3179 20.0074 23.9926C19.5342 23.6451 18.9944 23.4455 18.4251 23.4455C17.8558 23.4455 17.3235 23.6377 16.8577 23.9926C16.4214 24.3179 15.793 24.1035 15.5638 23.6081C15.2089 22.8392 15.0018 21.9224 15.0018 20.9316C15.0018 18.2477 16.5323 16.0665 18.4251 16.0665C20.3179 16.0665 21.8558 18.2477 21.8558 20.9316H21.8632Z" fill="#562912"/>
<path d="M15.7264 33.4343C14.78 33.4343 14.122 34.3438 14.3733 35.2606C16.0443 41.3604 23.2828 45.9593 31.9852 45.9593C40.6876 45.9593 48.0074 41.3086 49.6266 35.1497C49.8558 34.2772 49.146 33.4417 48.2514 33.4417H15.7264V33.4343Z" fill="#562912"/>
<path d="M31.9852 35.8225C36.732 35.8225 41.0869 34.9279 44.5397 33.4343H19.4307C22.8835 34.9279 27.2384 35.8225 31.9852 35.8225Z" fill="white"/>
<path d="M32.2884 42.6321C29.7671 42.6321 27.4973 43.6081 25.8928 45.1608C27.8004 45.671 29.8485 45.9519 31.9926 45.9519C34.3143 45.9519 36.5176 45.6192 38.5509 45.0203C36.9538 43.5416 34.7357 42.6248 32.2884 42.6248V42.6321Z" fill="#CC342F"/>
</g>
<defs>
<clipPath id="clip0_152_309">
<rect width="64" height="64" fill="white"/>
</clipPath>
</defs>
</svg>
