<svg width="64" height="64" viewBox="0 0 64 64" fill="none" xmlns="http://www.w3.org/2000/svg">
<g clip-path="url(#clip0_152_864)">
<path d="M64 32C64 49.671 49.671 64 32 64C14.329 64 0 49.671 0 32C0 14.329 14.3216 0 32 0C49.6784 0 64 14.329 64 32Z" fill="#FFCE00"/>
<path d="M51.5712 13.6488C46.3513 3.69685 36.6951 10.7505 38.3882 18.1885C39.7265 24.0296 46.1368 32.3253 46.1368 32.3253C47.0611 32 55.9927 28.7763 60.2588 24.5619C65.6784 19.2015 61.3235 8.05914 51.5712 13.6488Z" fill="#CC342F"/>
<path d="M12.4215 13.6488C17.6414 3.69685 27.2976 10.7505 25.6044 18.1885C24.2736 24.0296 17.8558 32.3253 17.8558 32.3253C16.9316 32 8.00001 28.7763 3.73384 24.5619C-1.68576 19.2015 2.66914 8.05914 12.4141 13.6488H12.4215Z" fill="#CC342F"/>
<path d="M20.3179 38.4251C19.5194 38.159 18.7652 39.024 18.9945 39.9556C20.3697 45.4196 25.6636 49.4935 32 49.4935C38.3364 49.4935 43.6303 45.4196 45.0055 39.9556C45.2421 39.0314 44.488 38.159 43.6821 38.4251C40.1701 39.5934 36.1996 40.244 32 40.244C27.8004 40.244 23.8299 39.586 20.3179 38.4251Z" fill="#562912"/>
<path d="M32 43.9409C29.2126 43.9409 26.817 45.634 25.7671 48.0592C27.6303 48.9686 29.7523 49.4935 32 49.4935C34.2477 49.4935 36.3771 48.9686 38.2329 48.0592C37.1756 45.634 34.7874 43.9409 32 43.9409Z" fill="#CC342F"/>
</g>
<defs>
<clipPath id="clip0_152_864">
<rect width="64" height="64" fill="white"/>
</clipPath>
</defs>
</svg>
