<svg width="100" height="100" viewBox="0 0 100 100" fill="none" xmlns="http://www.w3.org/2000/svg">
<rect width="100" height="100" rx="12" fill="#222728"/>
<g clip-path="url(#clip0_201_1196)">
<path d="M82 50C82 67.671 67.671 82 50 82C32.329 82 18 67.671 18 50C18 32.329 32.3216 18 50 18C67.6784 18 82 32.329 82 50Z" fill="#FFCE00"/>
<path d="M69.5712 31.6488C64.3513 21.6969 54.6951 28.7505 56.3882 36.1886C57.7265 42.0296 64.1368 50.3253 64.1368 50.3253C65.0611 50 73.9927 46.7764 78.2588 42.5619C83.6784 37.2015 79.3235 26.0592 69.5712 31.6488Z" fill="#CC342F"/>
<path d="M30.4215 31.6488C35.6414 21.6969 45.2976 28.7505 43.6044 36.1886C42.2736 42.0296 35.8558 50.3253 35.8558 50.3253C34.9316 50 26 46.7764 21.7338 42.5619C16.3142 37.2015 20.6691 26.0592 30.4141 31.6488H30.4215Z" fill="#CC342F"/>
<path d="M38.3179 56.4251C37.5194 56.1589 36.7652 57.024 36.9945 57.9556C38.3697 63.4195 43.6636 67.4935 50 67.4935C56.3364 67.4935 61.6303 63.4195 63.0055 57.9556C63.2421 57.0314 62.488 56.1589 61.6821 56.4251C58.1701 57.5933 54.1996 58.2439 50 58.2439C45.8004 58.2439 41.8299 57.5859 38.3179 56.4251Z" fill="#562912"/>
<path d="M50 61.9408C47.2126 61.9408 44.817 63.634 43.7671 66.0591C45.6303 66.9685 47.7523 67.4935 50 67.4935C52.2477 67.4935 54.3771 66.9685 56.2329 66.0591C55.1756 63.634 52.7874 61.9408 50 61.9408Z" fill="#CC342F"/>
</g>
<path fill-rule="evenodd" clip-rule="evenodd" d="M0 50L4.02685 53.3708C8.38926 57.0787 16.7785 64.1573 25.1678 64.4944C33.2215 65.1685 41.6107 59.1011 50 55.3933C58.3893 52.0225 66.7785 51.0112 75.1678 55.0562C83.2215 59.1011 91.6107 67.8652 95.9732 72.5843L100 76.9663V80H95.9732C91.6107 80 83.2215 80 75.1678 80C66.7785 80 58.3893 80 50 80C41.6107 80 33.2215 80 25.1678 80C16.7785 80 8.38926 80 4.02685 80H0V50Z" fill="#5CBEFF" fill-opacity="0.6"/>
<path fill-rule="evenodd" clip-rule="evenodd" d="M100 76.9663L100 64.4231L95.8333 65.9808C94.6235 66.4331 93.0623 67.0167 91.2518 67.6554C93.0947 69.4968 94.7043 71.2116 95.9732 72.5843L100 76.9663ZM37.3836 61.621C33.2557 58.9278 29.1279 56.6298 25 56.1154C20.352 55.5362 15.704 57.2184 11.7789 59.3601C15.7702 62.0019 20.469 64.3056 25.1678 64.4944C29.1706 64.8294 33.2562 63.4992 37.3836 61.621Z" fill="#0099FF" fill-opacity="0.6"/>
<path d="M0 80H100V88C100 94.6274 94.6274 100 88 100H12C5.37258 100 0 94.6274 0 88V80Z" fill="#5CBEFF" fill-opacity="0.6"/>
<defs>
<clipPath id="clip0_201_1196">
<rect width="64" height="64" fill="white" transform="translate(18 18)"/>
</clipPath>
</defs>
</svg>
