<svg width="64" height="64" viewBox="0 0 64 64" fill="none" xmlns="http://www.w3.org/2000/svg">
<g clip-path="url(#clip0_152_387)">
<path d="M64 32C64 49.671 49.6784 64 32 64C14.3216 64 0 49.671 0 32C0 14.329 14.329 0 32 0C49.671 0 64 14.329 64 32Z" fill="#FFCE00"/>
<path d="M32 51.4307C28.4806 51.4307 25.6266 48.5767 25.6266 45.0499V41.3087C25.6266 37.7893 28.4806 34.9279 32 34.9279C35.5268 34.9279 38.3807 37.7819 38.3807 41.3087V45.0499C38.3807 48.5693 35.5268 51.4307 32 51.4307Z" fill="#562912"/>
<path d="M49.6931 24.9464L45.4639 23.4677V60.1479C48.5692 58.9427 51.4232 57.2347 53.9223 55.1054V23.475L49.6931 24.9538V24.9464Z" fill="#61C0EB"/>
<path d="M14.2994 24.9464L10.0702 23.4677V55.1054C12.5619 57.2274 15.4158 58.9427 18.5212 60.1479V23.475L14.292 24.9538L14.2994 24.9464Z" fill="#61C0EB"/>
<path d="M10.8466 22.8096C10.5139 22.6026 10.0776 22.8392 10.0776 23.2311C10.0776 25.5749 11.9704 27.4677 14.3068 27.4677C16.6433 27.4677 18.536 25.5749 18.536 23.2385C18.536 22.8392 18.0998 22.6026 17.7671 22.8096C16.7616 23.4307 15.5786 23.793 14.3068 23.793C13.0351 23.793 11.8521 23.4307 10.854 22.8096H10.8466Z" fill="#562912"/>
<path d="M46.2328 22.8096C45.9001 22.6026 45.4639 22.8392 45.4639 23.2311C45.4639 25.5749 47.3567 27.4677 49.6931 27.4677C52.0295 27.4677 53.9223 25.5749 53.9223 23.2385C53.9223 22.8392 53.486 22.6026 53.1533 22.8096C52.1478 23.4307 50.9648 23.793 49.6931 23.793C48.4214 23.793 47.2384 23.4307 46.2328 22.8096Z" fill="#562912"/>
<path d="M52.7097 18.7431C52.658 18.7431 52.6062 18.7431 52.5471 18.7283C47.3493 17.9224 44.7319 13.7079 44.6284 13.5231C44.3253 13.0277 44.4879 12.3919 44.9759 12.0887C45.4713 11.7856 46.1072 11.9482 46.4103 12.4362C46.4473 12.5028 48.6654 16.0074 52.865 16.658C53.4343 16.7468 53.8262 17.2791 53.7375 17.8484C53.6561 18.366 53.2125 18.7357 52.7097 18.7357V18.7431Z" fill="#562912"/>
<path d="M11.2828 18.7431C10.78 18.7431 10.329 18.3734 10.2551 17.8558C10.1664 17.2865 10.5582 16.7542 11.1275 16.6654C15.3494 16.0148 17.5675 12.4806 17.5897 12.4436C17.8928 11.9556 18.5287 11.8004 19.024 12.0961C19.512 12.3993 19.6747 13.0351 19.3715 13.5231C19.2606 13.7005 16.6507 17.9224 11.4455 18.7283C11.3937 18.7357 11.3346 18.7431 11.2828 18.7431Z" fill="#562912"/>
</g>
<defs>
<clipPath id="clip0_152_387">
<rect width="64" height="64" fill="white"/>
</clipPath>
</defs>
</svg>
