<svg width="100" height="100" viewBox="0 0 100 100" fill="none" xmlns="http://www.w3.org/2000/svg">
<rect width="100" height="100" rx="12" fill="#222728"/>
<g clip-path="url(#clip0_201_340)">
<path d="M82 50C82 67.671 67.6784 82 50 82C32.3216 82 18 67.671 18 50C18 32.329 32.329 18 50 18C67.671 18 82 32.329 82 50Z" fill="#FFCE00"/>
<path d="M50 69.4306C46.4806 69.4306 43.6266 66.5767 43.6266 63.0499V59.3086C43.6266 55.7892 46.4806 52.9279 50 52.9279C53.5268 52.9279 56.3807 55.7818 56.3807 59.3086V63.0499C56.3807 66.5693 53.5268 69.4306 50 69.4306Z" fill="#562912"/>
<path d="M67.6931 42.9464L63.4639 41.4677V78.1479C66.5692 76.9427 69.4232 75.2347 71.9223 73.1054V41.475L67.6931 42.9538V42.9464Z" fill="#61C0EB"/>
<path d="M32.2994 42.9464L28.0702 41.4677V73.1054C30.5619 75.2274 33.4158 76.9427 36.5212 78.1479V41.475L32.292 42.9538L32.2994 42.9464Z" fill="#61C0EB"/>
<path d="M28.8466 40.8096C28.5139 40.6026 28.0776 40.8392 28.0776 41.2311C28.0776 43.5749 29.9704 45.4677 32.3068 45.4677C34.6433 45.4677 36.536 43.5749 36.536 41.2385C36.536 40.8392 36.0998 40.6026 35.7671 40.8096C34.7616 41.4307 33.5786 41.793 32.3068 41.793C31.0351 41.793 29.8521 41.4307 28.854 40.8096H28.8466Z" fill="#562912"/>
<path d="M64.2328 40.8096C63.9001 40.6026 63.4639 40.8392 63.4639 41.2311C63.4639 43.5749 65.3567 45.4677 67.6931 45.4677C70.0295 45.4677 71.9223 43.5749 71.9223 41.2385C71.9223 40.8392 71.486 40.6026 71.1533 40.8096C70.1478 41.4307 68.9648 41.793 67.6931 41.793C66.4214 41.793 65.2384 41.4307 64.2328 40.8096Z" fill="#562912"/>
<path d="M70.7097 36.7431C70.658 36.7431 70.6062 36.7431 70.5471 36.7283C65.3493 35.9224 62.7319 31.708 62.6284 31.5231C62.3253 31.0277 62.4879 30.3919 62.9759 30.0887C63.4713 29.7856 64.1072 29.9483 64.4103 30.4362C64.4473 30.5028 66.6654 34.0074 70.865 34.6581C71.4343 34.7468 71.8262 35.2791 71.7375 35.8484C71.6561 36.366 71.2125 36.7357 70.7097 36.7357V36.7431Z" fill="#562912"/>
<path d="M29.2828 36.743C28.78 36.743 28.329 36.3733 28.2551 35.8558C28.1664 35.2865 28.5582 34.7541 29.1275 34.6654C33.3494 34.0148 35.5675 30.4806 35.5897 30.4436C35.8928 29.9556 36.5287 29.8003 37.024 30.0961C37.512 30.3992 37.6747 31.0351 37.3715 31.5231C37.2606 31.7005 34.6507 35.9223 29.4455 36.7282C29.3937 36.7356 29.3346 36.743 29.2828 36.743Z" fill="#562912"/>
</g>
<defs>
<clipPath id="clip0_201_340">
<rect width="64" height="64" fill="white" transform="translate(18 18)"/>
</clipPath>
</defs>
</svg>
