<svg width="100" height="100" viewBox="0 0 100 100" fill="none" xmlns="http://www.w3.org/2000/svg">
<rect width="100" height="100" rx="12" fill="#222728"/>
<g clip-path="url(#clip0_201_415)">
<path d="M82 50C82 67.671 67.6767 82 49.9963 82C32.3159 82 18 67.671 18 50C18 32.329 32.3307 18 50.0037 18C67.6767 18 82.0074 32.329 82.0074 50H82Z" fill="url(#paint0_linear_201_415)"/>
<path d="M30.4894 39.257C30.1936 39.257 29.9052 39.1313 29.6982 38.8947C29.321 38.4584 29.3728 37.8004 29.8091 37.4233C31.8944 35.634 34.5564 34.5102 37.2924 34.2662C37.8766 34.207 38.372 34.6359 38.4238 35.2126C38.4755 35.7893 38.054 36.2921 37.4773 36.3438C35.1628 36.5509 32.9222 37.4973 31.1623 39.0056C30.9626 39.1756 30.726 39.257 30.482 39.257H30.4894Z" fill="#562912"/>
<path d="M69.1482 39.257C68.9042 39.257 68.6676 39.1756 68.4679 39.0056C66.708 37.4973 64.4675 36.5509 62.153 36.3438C61.5762 36.2921 61.1547 35.7819 61.2064 35.2126C61.2582 34.6359 61.7536 34.207 62.3378 34.2662C65.0812 34.5102 67.7358 35.634 69.8285 37.4233C70.2648 37.8004 70.3166 38.4584 69.9394 38.8947C69.7324 39.1387 69.444 39.257 69.1482 39.257Z" fill="#562912"/>
<path d="M39.7836 50.8502C39.7836 53.4233 38.3122 55.5157 36.4934 55.5157C34.6745 55.5157 33.2106 53.4307 33.2106 50.8502C33.2106 48.2698 34.6819 46.1848 36.4934 46.1848C38.3048 46.1848 39.7836 48.2772 39.7836 50.8502Z" fill="#562912"/>
<path d="M66.4336 50.8502C66.4336 53.4233 64.9623 55.5157 63.1508 55.5157C61.3393 55.5157 59.8606 53.4307 59.8606 50.8502C59.8606 48.2698 61.3319 46.1848 63.1508 46.1848C64.9697 46.1848 66.4336 48.2772 66.4336 50.8502Z" fill="#562912"/>
<path d="M59.3947 68.5213C60.2229 68.6914 60.7997 67.4492 60.2451 66.6433C57.8197 63.0722 54.0559 60.7727 49.8262 60.7727C45.5965 60.7727 41.8326 63.0722 39.3998 66.6433C38.8452 67.4566 39.422 68.6914 40.2502 68.5213C43.1267 67.9298 46.3729 67.6045 49.8188 67.6045C53.2646 67.6045 56.5183 67.9372 59.3947 68.5213Z" fill="#562912"/>
</g>
<defs>
<linearGradient id="paint0_linear_201_415" x1="50.0037" y1="11.1534" x2="50.0037" y2="76.2994" gradientUnits="userSpaceOnUse">
<stop stop-color="#2A97FF"/>
<stop offset="0.47" stop-color="#75BEBE"/>
<stop offset="0.76" stop-color="#D9CA34"/>
<stop offset="1" stop-color="#FFCE00"/>
</linearGradient>
<clipPath id="clip0_201_415">
<rect width="64" height="64" fill="white" transform="translate(18 18)"/>
</clipPath>
</defs>
</svg>
