<svg width="64" height="64" viewBox="0 0 64 64" fill="none" xmlns="http://www.w3.org/2000/svg">
<g clip-path="url(#clip0_152_162)">
<path d="M64 32C64 49.671 49.6767 64 31.9963 64C14.3159 64 0 49.671 0 32C0 14.329 14.3307 0 32.0037 0C49.6767 0 64.0074 14.329 64.0074 32H64Z" fill="url(#paint0_linear_152_162)"/>
<path d="M12.4894 21.2569C12.1936 21.2569 11.9052 21.1312 11.6982 20.8946C11.321 20.4584 11.3728 19.8004 11.8091 19.4233C13.8944 17.634 16.5564 16.5102 19.2924 16.2662C19.8766 16.207 20.372 16.6359 20.4238 17.2126C20.4755 17.7893 20.054 18.292 19.4773 18.3438C17.1628 18.5508 14.9222 19.4972 13.1623 21.0055C12.9626 21.1756 12.726 21.2569 12.482 21.2569H12.4894Z" fill="#562912"/>
<path d="M51.1482 21.2569C50.9042 21.2569 50.6676 21.1756 50.4679 21.0055C48.708 19.4972 46.4675 18.5508 44.153 18.3438C43.5762 18.292 43.1547 17.7819 43.2064 17.2126C43.2582 16.6359 43.7536 16.207 44.3378 16.2662C47.0812 16.5102 49.7358 17.634 51.8285 19.4233C52.2648 19.8004 52.3166 20.4584 51.9394 20.8946C51.7324 21.1386 51.444 21.2569 51.1482 21.2569Z" fill="#562912"/>
<path d="M21.7836 32.8503C21.7836 35.4233 20.3122 37.5157 18.4934 37.5157C16.6745 37.5157 15.2106 35.4307 15.2106 32.8503C15.2106 30.2699 16.6819 28.1848 18.4934 28.1848C20.3048 28.1848 21.7836 30.2773 21.7836 32.8503Z" fill="#562912"/>
<path d="M48.4336 32.8503C48.4336 35.4233 46.9623 37.5157 45.1508 37.5157C43.3393 37.5157 41.8606 35.4307 41.8606 32.8503C41.8606 30.2699 43.3319 28.1848 45.1508 28.1848C46.9697 28.1848 48.4336 30.2773 48.4336 32.8503Z" fill="#562912"/>
<path d="M41.3947 50.5213C42.2229 50.6913 42.7997 49.4492 42.2451 48.6433C39.8197 45.0721 36.0559 42.7726 31.8262 42.7726C27.5965 42.7726 23.8326 45.0721 21.3998 48.6433C20.8452 49.4566 21.422 50.6913 22.2502 50.5213C25.1267 49.9298 28.3729 49.6044 31.8188 49.6044C35.2646 49.6044 38.5183 49.9372 41.3947 50.5213Z" fill="#562912"/>
</g>
<defs>
<linearGradient id="paint0_linear_152_162" x1="32.0037" y1="-6.84658" x2="32.0037" y2="58.2994" gradientUnits="userSpaceOnUse">
<stop stop-color="#2A97FF"/>
<stop offset="0.47" stop-color="#75BEBE"/>
<stop offset="0.76" stop-color="#D9CA34"/>
<stop offset="1" stop-color="#FFCE00"/>
</linearGradient>
<clipPath id="clip0_152_162">
<rect width="64" height="64" fill="white"/>
</clipPath>
</defs>
</svg>
